<svg id="Flag" xmlns="http://www.w3.org/2000/svg" viewBox="0 0 1990 1050">
  <defs>
    <style>
      .cls-1 {
        fill: #ec1c24;
      }

      .cls-1, .cls-2 {
        fill-rule: evenodd;
      }

      .cls-2 {
        fill: #fff;
      }
    </style>
  </defs>
  <title>canada</title>
  <g>
    <g>
      <polygon class="cls-1" points="0 0 0 1050 497.501 1050 497.501 0 0 0 0 0"/>
      <polygon class="cls-2" points="497.501 0 497.501 1050 1492.505 1050 1492.505 0 497.501 0 497.501 0"/>
      <polygon class="cls-1" points="1990 0 1492.505 0 1492.505 1050 1990 1050 1990 0 1990 0"/>
    </g>
    <path class="cls-1" d="M995,853.329h11.839l-3.8-153.376,10.869-9.135c49.136,5.723,93.139,10.894,142.207,16.746l-12.431-41.926a19.477,19.477,0,0,1,6.395-19.888l142.673-118.6-29.572-14.242c-12.958-4.754-9.307-12.194-4.686-30.181l21.74-81.061-82.795,17.822c-8.125,1.262-13.486-4.01-14.667-8.993l-10.722-38.14-65.511,75.1c-9.306,12.031-28.152,12.031-22.266-15.8l27.986-152.129-37.525,19.928c-10.573,6-21.063,6.986-27.036-3.762l-52.7-99-52.723,98.983c-5.867,10.746-16.439,9.777-26.949,3.782l-37.525-19.928,28.007,152.109c5.8,27.846-13.044,27.846-22.35,15.815l-65.511-75.1-10.657,38.14c-1.268,4.983-6.543,10.255-14.669,9.012l-82.858-17.841,21.738,81.041c4.685,17.984,8.337,25.447-4.623,30.223l-29.63,14.22L839.922,645.73a19.436,19.436,0,0,1,6.542,19.908l-12.513,41.926c49.067-5.852,93.071-11,142.2-16.746l10.869,9.135-3.779,153.376Z"/>
  </g>
</svg>
