<svg id="Flag" xmlns="http://www.w3.org/2000/svg" viewBox="0 0 1990 1050">
  <defs>
    <style>
      .cls-1 {
        fill: #00247d;
      }

      .cls-2 {
        fill: #fff;
      }

      .cls-3 {
        fill: #ce1124;
      }
    </style>
  </defs>
  <title>islande</title>
  <g>
    <rect class="cls-1" x="0.383" y="0.796" width="1989.617" height="1049.204"/>
    <g>
      <g>
        <rect class="cls-2" y="0.048" width="999.326" height="534.166"/>
        <polygon class="cls-3" points="999.401 213.789 559.384 213.789 559.384 0.083 439.272 0.083 439.272 213.789 0.418 213.789 0.418 320.586 439.272 320.586 439.272 534.21 559.384 534.21 559.384 320.586 999.401 320.586 999.401 213.789"/>
      </g>
      <g>
        <polygon class="cls-1" points="0.009 62.251 0.009 178.551 217.976 178.551 0.009 62.251"/>
        <polygon class="cls-1" points="120.261 0.028 117.067 0.174 399.693 151.775 399.693 0.028 120.261 0.028"/>
        <polygon class="cls-3" points="335.435 177.818 0.009 0.055 0.009 41.952 255.506 177.818 335.435 177.818"/>
        <polygon class="cls-3" points="664.154 356.396 999.58 534.159 999.58 492.258 744.083 356.396 664.154 356.396"/>
      </g>
      <g>
        <polygon class="cls-1" points="0.009 472.857 0.009 356.558 217.976 356.558 0.009 472.857"/>
        <polygon class="cls-1" points="120.261 535.081 117.067 534.935 399.693 383.334 399.693 535.081 120.261 535.081"/>
        <polygon class="cls-3" points="333.72 356.385 0.229 534.068 78.223 534.147 400.014 363.609 400.014 356.385 333.72 356.385"/>
      </g>
      <g>
        <polygon class="cls-1" points="999.587 62.224 999.587 178.527 781.621 178.527 999.587 62.224"/>
        <polygon class="cls-1" points="879.336 0 882.529 0.15 599.904 151.747 599.904 0 879.336 0"/>
        <polygon class="cls-3" points="999.265 0.249 924.247 0.245 600.191 171.98 600.191 178.007 668.751 178.007 999.265 0.249"/>
      </g>
      <g>
        <polygon class="cls-1" points="999.587 472.814 999.587 356.51 781.621 356.51 999.587 472.814"/>
        <polygon class="cls-1" points="879.336 535.038 882.529 534.891 599.904 383.29 599.904 535.038 879.336 535.038"/>
      </g>
    </g>
    <polygon class="cls-2" points="496.94 628.511 467.864 723.096 377.825 685.953 430.818 771.626 348.752 825.111 444.418 831.051 430.818 934.551 497.877 858.785 563.999 936.038 550.869 831.547 645.128 823.624 563.999 771.626 616.992 686.942 527.891 723.592 496.94 628.511"/>
    <polygon class="cls-2" points="1243.979 386.877 1230.538 430.603 1188.915 413.432 1213.413 453.035 1175.476 477.761 1219.7 480.508 1213.413 528.352 1244.415 493.327 1274.981 529.038 1268.91 480.737 1312.485 477.071 1274.981 453.035 1299.477 413.89 1258.289 430.831 1243.979 386.877"/>
    <polygon class="cls-2" points="1494.654 102.882 1481.212 146.607 1439.589 129.438 1464.087 169.039 1426.148 193.766 1470.373 196.513 1464.087 244.358 1495.087 209.331 1525.653 245.043 1519.584 196.742 1563.159 193.08 1525.653 169.039 1550.151 129.895 1508.961 146.836 1494.654 102.882"/>
    <polygon class="cls-2" points="1713.787 316.755 1700.345 360.48 1658.723 343.31 1683.216 382.912 1645.281 407.638 1689.506 410.386 1683.216 458.23 1714.22 423.204 1744.787 458.916 1738.713 410.614 1782.289 406.952 1744.787 382.912 1769.284 343.767 1728.094 360.708 1713.787 316.755"/>
    <polygon class="cls-2" points="1494.654 800.597 1481.212 844.323 1439.589 827.152 1464.087 866.758 1426.148 891.481 1470.373 894.228 1464.087 942.072 1495.087 907.047 1525.653 942.762 1519.584 894.457 1563.159 890.795 1525.653 866.758 1550.151 827.614 1508.961 844.551 1494.654 800.597"/>
    <polygon class="cls-2" points="1595.768 512.412 1607.048 549.07 1643.546 549.07 1614.02 571.723 1625.297 608.377 1595.768 585.724 1566.242 608.377 1577.523 571.723 1547.993 549.07 1584.491 549.07 1595.768 512.412"/>
  </g>
</svg>
