<svg id="eODlF1nrCNK1" xmlns="http://www.w3.org/2000/svg" xmlns:xlink="http://www.w3.org/1999/xlink" viewBox="0 0 80 79" shape-rendering="geometricPrecision" text-rendering="geometricPrecision"><style><![CDATA[#eODlF1nrCNK4_tr {animation: eODlF1nrCNK4_tr__tr 45000ms linear infinite normal forwards}@keyframes eODlF1nrCNK4_tr__tr { 0% {transform: translate(39.037806px,37.660695px) rotate(0deg)} 100% {transform: translate(39.037806px,37.660695px) rotate(360deg)}} #eODlF1nrCNK6_to {animation: eODlF1nrCNK6_to__to 45000ms linear infinite normal forwards}@keyframes eODlF1nrCNK6_to__to { 0% {transform: translate(12.75897px,13.5293px)} 22.222222% {transform: translate(62.75897px,13.5293px)} 44.444444% {transform: translate(12.75897px,13.5293px)} 66.666667% {transform: translate(62.75897px,13.5293px)} 100% {transform: translate(12.75897px,13.5293px)}} #eODlF1nrCNK12_to {animation: eODlF1nrCNK12_to__to 45000ms linear infinite normal forwards}@keyframes eODlF1nrCNK12_to__to { 0% {transform: translate(63.712008px,46.664185px)} 22.222222% {transform: translate(16.712008px,46.664185px)} 44.444444% {transform: translate(63.712008px,46.664185px)} 66.666667% {transform: translate(16.712008px,46.664185px)} 100% {transform: translate(63.712008px,46.664185px)}}]]></style><g id="eODlF1nrCNK2" transform="matrix(1 0 0 1 1 1)"><path id="eODlF1nrCNK3" d="M0,0L80,0L80,80L0,80Z" fill="none" fill-rule="evenodd" stroke="none" stroke-width="1"/><g id="eODlF1nrCNK4_tr" transform="translate(39.037806,37.660695) rotate(0)"><path id="eODlF1nrCNK4" d="M30.922,68.728C25.752,67.228,20.85,64.419,16.744,60.313C5.652,49.221,4.037,32.324,12.056,20.025M68.316,51.81C66.786205,55.225334,64.64425,58.331846,61.996,60.976C57.80875,65.167025,52.49934,68.058395,46.707,69.302M20.417,11.458C32.762,2.965,50.05,4.443,61.33,15.724C68.667,23.064,71.858,32.94,70.858,42.346" transform="translate(-39.037806,-37.660695)" fill="none" fill-rule="evenodd" stroke="rgb(250,171,149)" stroke-width="2" stroke-linecap="round" stroke-linejoin="round" stroke-dasharray="1,6"/></g><path id="eODlF1nrCNK5" d="M23.38,19.31L2.079,19.015C0.923,18.998,-0.011,18.059,0,16.918L0.001,16.896C0.018987,15.713796,0.529667,14.59277,1.409852,13.803337C2.290037,13.013905,3.459812,12.627742,4.637,12.738C5.081865,9.833754,7.60223,7.703633,10.54,7.749C12.633705,7.778584,14.554528,8.916764,15.586,10.739C16.198157,10.415847,16.881868,10.252142,17.574,10.263C19.748,10.294,21.536,12.031,21.657,14.178C22,14.094,22.359,14.068,22.715,14.105C24.314532,14.274402,25.525919,15.627542,25.518,17.236C25.514846,17.791003,25.288091,18.3213,24.889,18.707C24.487238,19.102261,23.943518,19.319533,23.38,19.31" fill="none" fill-rule="evenodd" stroke="none" stroke-width="1"/><g id="eODlF1nrCNK6_to" transform="translate(12.75897,13.5293)"><path id="eODlF1nrCNK6" d="M23.38,19.31L2.079,19.015C0.923,18.998,-0.011,18.059,0,16.918L0.001,16.896C0.018987,15.713796,0.529667,14.59277,1.409852,13.803337C2.290037,13.013905,3.459812,12.627742,4.637,12.738C5.081865,9.833754,7.60223,7.703633,10.54,7.749C12.633705,7.778584,14.554528,8.916764,15.586,10.739C16.198157,10.415847,16.881868,10.252142,17.574,10.263C19.748,10.294,21.536,12.031,21.657,14.178C22,14.094,22.359,14.068,22.715,14.105C24.314532,14.274402,25.525919,15.627542,25.518,17.236C25.514846,17.791003,25.288091,18.3213,24.889,18.707C24.487238,19.102261,23.943518,19.319533,23.38,19.31Z" transform="translate(-12.75897,-13.5293)" fill="none" fill-rule="evenodd" stroke="rgb(255,255,255)" stroke-width="2" stroke-linecap="round" stroke-linejoin="round"/></g><path id="eODlF1nrCNK7" d="M46.413,76.118L30.885,76.038C30.787,76.038,30.708,75.965,30.708,75.877L30.778,62.223C30.778,62.133,30.856,62.062,30.955,62.062L46.483,62.14C46.581,62.14,46.661,62.213,46.661,62.304L46.592,75.956C46.592,76.044,46.512,76.118,46.413,76.118" fill="none" fill-rule="evenodd" stroke="none" stroke-width="1"/><path id="eODlF1nrCNK8" d="M46.413,76.118L30.885,76.038C30.787,76.038,30.708,75.965,30.708,75.877L30.778,62.223C30.778,62.133,30.856,62.062,30.955,62.062L46.483,62.14C46.581,62.14,46.661,62.213,46.661,62.304L46.592,75.956C46.592,76.044,46.512,76.118,46.413,76.118Z" fill="none" fill-rule="evenodd" stroke="rgb(255,255,255)" stroke-width="2" stroke-linecap="round" stroke-linejoin="round"/><path id="eODlF1nrCNK9" d="M42.062,61.978L35.376,61.945C35.306398,61.944413,35.243681,61.902863,35.216,61.839C34.613,60.452,29.348,48.042,29.391,39.446C29.421,33.648,30.416,28.198,32.197,24.104C33.998,19.96,36.392,17.686,38.942,17.698C41.492,17.711,43.864,20.009,45.623,24.17C47.363,28.284,48.303,33.742,48.273,39.54C48.23,48.136,42.84,60.493,42.226,61.874C42.19594,61.937372,42.13214,61.977831,42.062,61.978Z" fill="none" fill-rule="evenodd" stroke="rgb(250,171,149)" stroke-width="2" stroke-linecap="round" stroke-linejoin="round" stroke-dasharray="1,6"/><path id="eODlF1nrCNK10" d="M30.753,69.216L46.636,69.295" fill="none" fill-rule="evenodd" stroke="rgb(255,255,255)" stroke-width="2" stroke-linecap="round" stroke-linejoin="round"/><path id="eODlF1nrCNK11" d="M77.494,49.66C77.477943,48.608096,77.023549,47.610636,76.240405,46.90818C75.457261,46.205723,74.416455,45.862034,73.369,45.96C72.97304,43.375133,70.729702,41.479355,68.115,41.52C66.251808,41.546101,64.542466,42.559143,63.625,44.181C63.081,43.895,61.351,43.749,60.733,43.758C58.799455,43.795456,57.218432,45.310784,57.099,47.241L56.981,47.352C56.876,47.338,56.771,47.321,56.663,47.321L52.173,47.321C50.935432,47.324846,49.933294,48.32743,49.93,49.565C49.933297,50.802959,50.936041,51.805703,52.174,51.809L56.663,51.809C56.828,51.809,56.989,51.788,57.143,51.754L75.643,51.547C76.673,51.532,77.503,50.696,77.493,49.681L77.493,49.661Z" fill="none" fill-rule="evenodd" stroke="none" stroke-width="1"/><g id="eODlF1nrCNK12_to" transform="translate(63.712008,46.664185)"><path id="eODlF1nrCNK12" d="M77.494,49.66C77.477943,48.608096,77.023549,47.610636,76.240405,46.90818C75.457261,46.205723,74.416455,45.862034,73.369,45.96C72.97304,43.375133,70.729702,41.479355,68.115,41.52C66.251808,41.546101,64.542466,42.559143,63.625,44.181C63.081,43.895,61.351,43.749,60.733,43.758C58.799455,43.795456,57.218432,45.310784,57.099,47.241L56.981,47.352C56.876,47.338,56.771,47.321,56.663,47.321L52.173,47.321C50.935432,47.324846,49.933294,48.32743,49.93,49.565C49.933297,50.802959,50.936041,51.805703,52.174,51.809L56.663,51.809C56.828,51.809,56.989,51.788,57.143,51.754L75.643,51.547C76.673,51.532,77.503,50.696,77.493,49.681L77.493,49.661Z" transform="translate(-63.712008,-46.664185)" fill="none" fill-rule="evenodd" stroke="rgb(255,255,255)" stroke-width="2" stroke-linecap="round" stroke-linejoin="round"/></g><path id="eODlF1nrCNK13" d="M55.385,51.812C53.283,54.785,51.025,57.37,49.591,58.925C48.638294,59.962104,47.6552,60.970876,46.643,61.95C46.609427,61.982298,46.564586,62.000234,46.518,62L30.919,61.92C30.873227,61.921112,30.82892,61.903822,30.796,61.872C29.977165,61.061706,29.177282,60.232482,28.397,59.385C26.838,57.691,24.528,55.031,22.379,51.975C21.594739,50.860566,20.856779,49.714259,20.167,48.539C19.580501,47.537068,19.046448,46.505345,18.567,45.448C17.545,43.162,17.03,41.122,17.038,39.384C17.048,37.472,17.305,35.579,17.802,33.757C19.598,27.149,24.482,21.71,30.867,19.202C33.438467,18.192818,36.178641,17.682726,38.941,17.699C47.432,17.743,55.185,22.769,58.693,30.506C59.133,31.478,59.503,32.486,59.791,33.506C60.357,35.475,60.637,37.526,60.627,39.604C60.621,40.79,60.373,42.051,59.95,43.343" fill="none" fill-rule="evenodd" stroke="rgb(255,255,255)" stroke-width="2" stroke-linecap="round" stroke-linejoin="round"/></g></svg>