<svg xmlns="http://www.w3.org/2000/svg" viewBox="0 0 823.462 763.068">
  <defs>
    <style>
      .cls-1, .cls-2 {
        fill: #fff;
      }

      .cls-1 {
        fill-rule: evenodd;
      }

      .cls-2 {
        isolation: isolate;
        font-size: 253.177px;
        font-family: AirbnbCerealApp-Medium, Airbnb Cereal App;
        font-weight: 500;
        letter-spacing: -0.014em;
      }

      .cls-3 {
        letter-spacing: -0.017em;
      }

      .cls-4 {
        letter-spacing: 0em;
      }
    </style>
  </defs>
  <title>Fichier 1</title>
  <g id="Calque_2" data-name="Calque 2">
    <g id="Layer_1" data-name="Layer 1">
      <path class="cls-1" d="M229.158,435.125A534.658,534.658,0,0,1,147.94,465l447.615-1.721A214.25,214.25,0,0,0,766.61,181.9l29.411-46.971-36.65,28.654-24.218,18.938A184.419,184.419,0,0,1,593.225,433.729q-163.446.59-326.9,1.25A281.089,281.089,0,0,0,314.71,387.25a644.558,644.558,0,0,1-85.552,47.875M29.784,315.62a128.026,128.026,0,0,1,129.1-135.592l31.513.315-1.7-31.47A113.183,113.183,0,0,1,404.52,95.43L420.2,129.494l29.459-23.2A185.379,185.379,0,0,1,658.337,92.635l27.469-17.471L719.545,53.7l-57.436,7.241A214.25,214.25,0,0,0,431.373,83.068a142.743,142.743,0,0,0-272.2,67.4A157.723,157.723,0,0,0,2.525,336.311a192.236,192.236,0,0,0,132.457,25.448A123.5,123.5,0,0,1,29.784,315.62ZM775.646,67.439c-15.566,14.151-49.936,33.926-93.538,54.044,35.553-30.569,69.525-51.332,92.053-56.841a1.634,1.634,0,0,1,1.485,2.8ZM313.416,255.916l20.74-15.986,77.337,38.022,104.99-71.29-137.4-20.737,20.741-11.666,193.99-20.464a46.82,46.82,0,0,0,20.116-6.742L745.667,67.8a57.876,57.876,0,0,1,30.468-8.647l37.369-.425a9.814,9.814,0,0,1,7.527,16.242l-8.466,9.761A155.528,155.528,0,0,1,781,112.784l-73.375,49.874a140.185,140.185,0,0,0-34.041,32.16L611.531,275.8l-8.643-41.045,23.764-22.033C458.8,307.91,444,324.631,265,318.15L289.2,301.3l63.08.431ZM52.136,380.4q-19.668-3.69-39.027-9.352A158.125,158.125,0,0,0,86.2,448.578a477.548,477.548,0,0,0,67.162-13.16A477.709,477.709,0,0,0,309.534,360.47a250.317,250.317,0,0,1-59.193,16.416A186.444,186.444,0,0,0,269.783,360.9,402.75,402.75,0,0,1,52.136,380.4Z"/>
      <text class="cls-2" transform="translate(0 695.215) scale(0.981 1)">e<tspan class="cls-3" x="143.552" y="0">va</tspan><tspan class="cls-4" x="413.182" y="0">trip</tspan></text>
    </g>
  </g>
</svg>
