<svg id="map" xmlns="http://www.w3.org/2000/svg" xmlns:xlink="http://www.w3.org/1999/xlink" viewBox="0 0 210 150" shape-rendering="geometricPrecision" text-rendering="geometricPrecision"><style><![CDATA[#map-circle2_tr {animation: map-circle2_tr__tr 30000ms linear infinite normal forwards}@keyframes map-circle2_tr__tr { 0% {transform: translate(196.799995px,129.899998px) rotate(0deg)} 100% {transform: translate(196.799995px,129.899998px) rotate(360deg)}}]]></style><path id="map-path1" d="M1.3,12C1.3,12,17.7,12.9,24.2,19.2C24.2,19.2,24.9,5.7,36.6,0.5" fill="none" stroke="rgb(53,115,147)" stroke-width="2" stroke-linecap="round" stroke-linejoin="round" stroke-miterlimit="10" stroke-dasharray="1,6"/><circle id="map-circle1" r="6.8" transform="matrix(1 0 0 1 196.8 129.9)" fill="none" stroke="rgb(52,58,64)" stroke-width="2" stroke-linecap="round" stroke-linejoin="round" stroke-miterlimit="10"/><g id="map-circle2_tr" transform="translate(196.799995,129.899998) rotate(0)"><circle id="map-circle2" r="12.1" transform="translate(0.000005,0.000002)" fill="none" stroke="rgb(53,115,147)" stroke-width="2" stroke-linecap="round" stroke-linejoin="round" stroke-miterlimit="10" stroke-dasharray="1,6"/></g><g id="map-map_fold"><path id="map-path2" d="M45.5,63C48.1,68.3,52,72.6,57.7,73.3C62.8,73.9,65.8,70.9,69.4,69.4C71.2,68.7,73.2,68.5,75.2,68.3C76.9,66.2,78.7,64.1,80.3,61.9C84.4,56.3,85.5,51,86.2,46.2C86.6,43.6,86.9,40.7,86.6,38.3" fill="none" stroke="rgb(53,115,147)" stroke-width="2" stroke-linecap="round" stroke-linejoin="round" stroke-miterlimit="10" stroke-dasharray="1,6"/><path id="map-path3" d="M164.5,56.9C160,54.6,154.4,54.7,147.3,59.2C143.3,61.7,138.8,65.3,134.8,69.1L134.8,69.1C133.1,68.7,131.5,68.5,130,68.4C125,68,122.6,74.1,120,77.2C114,81.5,124.6,95,134.8,104.4C139.8,103.3,144.7,101.4,147.3,99.3C151.3,96.3,155,91.9,158.9,88.4C160.5,86.9,162.5,85.3,164.5,83.4" fill="none" stroke="rgb(53,115,147)" stroke-width="2" stroke-linecap="round" stroke-linejoin="round" stroke-miterlimit="10" stroke-dasharray="1,6"/><path id="map-path4" d="M64.2,97C66.7,101.5,73.3,106,78.8,104.6C82.7,103.6,83.7,100.3,85.8,97C87.6,94.1,88.6,92.5,91.5,90.6C94,89,95.9,89.3,97,86C98.1,82.7,98,79,94.6,78.3C90.8,77.5,89.5,81.2,86.5,82.9C81.3,85.8,75.2,87.8,70.3,90.4C67.7,91.8,63.5,94.3,64.3,97.7" fill="none" stroke="rgb(53,115,147)" stroke-width="2" stroke-linecap="round" stroke-linejoin="round" stroke-miterlimit="10" stroke-dasharray="1,6"/><path id="map-path5" d="M164.2,29.2C163.7,28.9,163.1,28.9,162.6,29.2L134.2,45.4L105.8,29.2C105.3,28.9,104.7,28.9,104.2,29.2L104.2,29.2L75.8,45.4L47.4,29.2C46.9,28.9,46.3,28.9,45.8,29.2C45.3,29.5,45,30,45,30.6L45,102.8C45,103.4,45.3,103.9,45.8,104.2L75,120.8C75.2,120.9,75.5,121,75.8,121C76.1,121,76.4,120.9,76.6,120.8L105,104.6L133.4,120.8C133.6,120.9,133.9,121,134.2,121C134.5,121,134.8,120.9,135,120.8L164.2,104.1C164.7,103.8,165,103.3,165,102.7L165,30.6C165,30,164.7,29.5,164.2,29.2Z" fill="none" stroke="rgb(52,58,64)" stroke-width="2" stroke-linecap="round" stroke-linejoin="round" stroke-miterlimit="10"/><line id="map-line1" x1="75.8" y1="45.4" x2="75.8" y2="120.8" fill="none" stroke="rgb(52,58,64)" stroke-width="2" stroke-linecap="round" stroke-linejoin="round" stroke-miterlimit="10"/><line id="map-line2" x1="134.1" y1="45.4" x2="134.1" y2="120.8" fill="none" stroke="rgb(52,58,64)" stroke-width="2" stroke-linecap="round" stroke-linejoin="round" stroke-miterlimit="10"/><line id="map-line3" x1="105" y1="29" x2="105" y2="104.4" fill="none" stroke="rgb(52,58,64)" stroke-width="2" stroke-linecap="round" stroke-linejoin="round" stroke-miterlimit="10"/></g></svg>