<svg id="eR9sSGOjtId1" xmlns="http://www.w3.org/2000/svg" xmlns:xlink="http://www.w3.org/1999/xlink" viewBox="0 0 80 80"
    shape-rendering="geometricPrecision" text-rendering="geometricPrecision">
    <style>
        <![CDATA[
        #eR9sSGOjtId5_tr {
            animation: eR9sSGOjtId5_tr__tr 45000ms linear infinite normal forwards
        }

        @keyframes eR9sSGOjtId5_tr__tr {
            0% {
                transform: translate(40.095246px, 40.328679px) rotate(0deg)
            }

            100% {
                transform: translate(40.095246px, 40.328679px) rotate(360deg)
            }
        }
        ]]>
    </style>
    <g id="eR9sSGOjtId2">
        <path id="eR9sSGOjtId3" d="M0,0L80,0L80,80L0,80Z" fill="none" fill-rule="evenodd" stroke="none"
            stroke-width="1" />
        <g id="eR9sSGOjtId4">
            <g id="eR9sSGOjtId5_tr" transform="translate(40.095246,40.328679) rotate(0)">
                <path id="eR9sSGOjtId5"
                    d="M64.62,20.497C75.055,33.217,74.595,51.743,63.053,63.286C52.983,73.355,37.597,74.991,25.39,68.318M16.553,61.306C5.118,48.58,5.243,29.27,17.141,17.376C28.465,6.047,46.511,5.39,59.195,15.218"
                    transform="translate(-40.095246,-40.328679)" fill="none" fill-rule="evenodd" stroke="rgb(0,217,187)"
                    stroke-width="2" stroke-linecap="round" stroke-linejoin="round" stroke-dasharray="1,6" />
            </g>
            <path id="eR9sSGOjtId6"
                d="M35.755,47.28C36.545,46.759,37.541,46.469,38.471,46.2C39.898,45.789,41.25,45.395,41.88,44.345C42.663,43.04,42.057,42.114,41.005,40.71C40.395,39.903,39.771,39.065,39.545,38.055C39.077,35.948,36.119,34.601,34.723,34.601C33.139,34.601,31.341,34.601,29.695,34.327C29.233142,34.255831,28.766293,34.222055,28.299,34.226C27.059,34.226,25.626,34.426,24.896,34.701C24.536,34.833,24.384,35.18,24.124,35.828C23.907,36.361,23.638,37.023,23.102,37.628C22.382,38.437,21.591,38.544,20.984,38.544C20.731,38.544,20.471,38.521,20.199,38.5C19.932409,38.474139,19.664827,38.459793,19.397,38.457C19.268463,38.456219,19.139968,38.461893,19.012,38.474C17.586,38.603,16.456,39.007,15.109,39.862C13.887,40.64,13.748,42.734,13.625,44.582L13.618,44.655C13.516,46.21,16.815,48.633,20.207,48.894C22.019,49.034,23.269,49.934,24.165,51.079M44.216,54.864C44.286,55.725,44.476,56.612,44.642,56.85C45.076,56.824,46.31,56.026,47.127,54.977C47.711,54.225,48.671,53.956,49.44,53.741C49.846,53.627,50.458,53.459,50.506,53.288C50.619,52.891,50.868,51.493,49.326,50.091C48.998,49.791,48.693,49.653,48.367,49.653C47.903,49.653,47.401,49.932,46.869,50.227C46.549668,50.415263,46.218285,50.582291,45.877,50.727C45.371,50.927,45.275,51.249,45.047,52.241C44.895,52.894,44.692,53.779,44.217,54.864ZM19.987,16.118C21.489,17.369,23.207,17.29,24.457,17.66C28.25,18.775,28.593,20.202,28.647,21.955C28.657,22.239,28.663,22.506,28.707,22.759C28.924,24.061,31.497,25.651,34.193,25.651C35.399,25.651,36.437,25.909,37.354,26.135C38.114,26.321,38.831,26.499,39.522,26.499C40.109,26.499,40.632,26.374,41.165,26.109C42.061,25.661,42.426,24.94,42.818,24.179C43.333,23.161,43.909,21.996,45.863,22.181C47.408,22.328,50.138,22.118,51.987,22.118M72.08,37.33C71.564,37.374,71.034,37.466,70.439,37.571C69.587,37.719,68.617,37.888,67.476,37.939C65.191,38.043,64.594,38.959,63.839,40.115C63.724,40.293,63.607,40.472,63.481,40.648C63.033,41.292,63.189,42.108,63.404,43.239C63.547,43.992,63.711,44.849,63.711,45.82C63.711,47.6,63.198,48.154,62.485,48.925C62.12,49.321,61.705,49.77,61.223,50.518C59.943,52.498,59.633,53.762,59.747,54.038L59.794,54.038C59.848,54.038,59.943,54.032,60.091,53.989C60.321,53.922,60.607,53.89,60.961,53.89C62.905,53.89,66.491,54.861,68.046,55.308"
                fill="none" fill-rule="evenodd" stroke="rgb(0,217,187)" stroke-width="2" stroke-linecap="round"
                stroke-linejoin="round" />
            <g id="eR9sSGOjtId7">
                <path id="eR9sSGOjtId8"
                    d="M15.93,69.03C18.18,68.272,14.988,48.119,35.897,47.444ZM15.898,76.809C18.644,74.546,19.243,71.535,17.234,70.087C15.227,68.635,11.373,69.299,8.627,71.562C5.879,73.825,5.283,76.835,7.29,78.286C9.298,79.735,13.152,79.074,15.898,76.809ZM8.363,64.873C12.563,63.539,33.988,74.119,42.607,59.968ZM7.501,67.423C6.19,68.923,3.868,69.193,2.311,68.021C0.757,66.846,0.555,64.678,1.864,63.176C3.174,61.674,5.496,61.406,7.053,62.579C8.61,63.751,8.811,65.919,7.501,67.423Z"
                    fill="none" fill-rule="evenodd" stroke="rgb(255,255,255)" stroke-width="2" stroke-linecap="round"
                    stroke-linejoin="round" />
                <path id="eR9sSGOjtId9"
                    d="M35.897,47.443L16.987,66.118L42.607,59.968M13.993,7.478C14.959511,8.54835,15.27503,10.0561,14.818796,11.42418C14.362562,12.79226,13.20522,13.808834,11.789726,14.084822C10.374233,14.36081,8.919765,13.853478,7.983,12.757C6.537964,11.096028,6.706793,8.579573,8.36075,7.126513C10.014707,5.673453,12.53195,5.830097,13.993,7.477ZM13.935,13.473L20.674,21.146M46.48,6.159C46.066286,7.527149,44.954101,8.570656,43.562393,8.896444C42.170684,9.222232,40.710887,8.780805,39.732893,7.738444C38.754898,6.696084,38.407286,5.211149,38.821,3.843C39.460546,1.728026,41.693526,0.531954,43.8085,1.1715C45.923474,1.811046,47.119546,4.044026,46.48,6.159ZM41.36,9.276L38.405,19.052M49.817,35.334L77.375,7.625C78.43,6.563,78.437,3.453,77.391,2.44C76.344,1.428,73.211,1.468,72.155,2.53L44.597,30.24L41.624,38.741ZM70.585,4.108L75.805,9.203M44.77,30.063L49.99,35.159"
                    fill="none" fill-rule="evenodd" stroke="rgb(255,255,255)" stroke-width="2" stroke-linecap="round"
                    stroke-linejoin="round" />
            </g>
        </g>
    </g>
</svg>